<svg width="26" height="28" viewBox="0 0 26 28" fill="none" xmlns="http://www.w3.org/2000/svg">
<path d="M15.0807 13.9982L25.6275 1.4263C25.8043 1.21737 25.6557 0.899963 25.3824 0.899963H22.1762C21.9874 0.899963 21.8066 0.984338 21.682 1.12898L12.9833 11.4991L4.28468 1.12898C4.16414 0.984338 3.98334 0.899963 3.79048 0.899963H0.584232C0.311018 0.899963 0.162357 1.21737 0.339143 1.4263L10.886 13.9982L0.339143 26.5701C0.299541 26.6166 0.274135 26.6736 0.26594 26.7342C0.257745 26.7947 0.267106 26.8564 0.292911 26.9118C0.318716 26.9672 0.359882 27.0141 0.411521 27.0468C0.46316 27.0795 0.523102 27.0967 0.584232 27.0964H3.79048C3.97932 27.0964 4.16013 27.012 4.28468 26.8674L12.9833 16.4973L21.682 26.8674C21.8025 27.012 21.9833 27.0964 22.1762 27.0964H25.3824C25.6557 27.0964 25.8043 26.779 25.6275 26.5701L15.0807 13.9982Z" fill="#4E4E4E"/>
</svg>
