<svg width="30" height="27" viewBox="0 0 30 27" fill="none" xmlns="http://www.w3.org/2000/svg">
<path d="M14.9975 26.9969H14.921C14.6976 26.9801 14.4851 26.8936 14.3136 26.7494C14.2666 26.7095 14.2234 26.6653 14.1846 26.6174L0.25119 10.0083C0.142543 9.88419 0.065833 9.7354 0.027716 9.57489C0.027716 9.55539 0.0187171 9.53589 0.0142176 9.51639C-0.0282716 9.26514 0.0252649 9.00709 0.1642 8.79348L0.192697 8.75148L5.63706 1.04988C5.65656 1.01988 5.67606 0.992885 5.69856 0.968887C5.85781 0.779635 6.07878 0.652688 6.32248 0.610429C6.36419 0.604071 6.40628 0.600563 6.44847 0.59993L14.9225 0H14.9975H15.071L23.5465 0.59993C23.5933 0.602584 23.64 0.608599 23.686 0.617928C23.9534 0.667709 24.191 0.81934 24.3489 1.04088L29.8038 8.75598C29.815 8.77093 29.8256 8.78645 29.8352 8.80248C29.9601 8.99368 30.0167 9.22149 29.9957 9.4489C29.9894 9.50719 29.9784 9.56487 29.9627 9.62138C29.9217 9.76518 29.8489 9.89793 29.7498 10.0098L15.8119 26.6159C15.7887 26.645 15.7636 26.6725 15.7369 26.6984C15.6493 26.7835 15.5479 26.853 15.4369 26.9039C15.3459 26.945 15.2494 26.9728 15.1505 26.9864C15.0998 26.9934 15.0486 26.9969 14.9975 26.9969ZM8.91718 10.3653L14.9975 23.4918L21.0778 10.3653H8.91718ZM23.3755 10.3653L19.233 19.3088L26.7321 10.3653H23.3755ZM3.25834 10.3653L10.7575 19.3088L6.61945 10.3653H3.25834ZM24.2484 4.49048L23.8584 8.31653H26.9511L24.2484 4.49048ZM14.9975 2.80317L10.306 8.31653H19.6889L14.9975 2.80317ZM5.74655 4.49048L3.04387 8.31653H6.13651L5.74655 4.49048ZM17.2127 2.20624L21.8232 7.62511L22.3466 2.5662L17.2127 2.20624ZM12.7792 2.20624L7.64833 2.5662L8.16577 7.62511L12.7792 2.20624Z" fill="#10D091"/>
</svg>
