<svg width="65" height="65" viewBox="0 0 65 65" fill="none" xmlns="http://www.w3.org/2000/svg">
<path d="M19.956 22.0681H43.796C44.884 22.0681 45.876 22.7401 46.292 23.7321L58.292 55.4121C58.804 56.7561 58.132 58.3241 56.788 58.8361C56.468 58.9321 56.212 58.9961 55.86 58.9961H8.468C7.06 58.9961 5.812 57.8441 5.812 56.3401C5.812 56.0201 5.908 55.7641 5.972 55.4121L17.492 23.7321C17.876 22.7401 18.868 22.0681 19.956 22.0681V22.0681Z" fill="#E5E6E8"/>
<path d="M7.53999 41.0761L12.964 26.4841L18.388 11.8921H45.076L56.724 41.0761" fill="white"/>
<path d="M7.54 41.9081C7.444 41.9081 7.38 41.9081 7.284 41.8121C6.868 41.6521 6.612 41.1401 6.772 40.7241L17.78 11.0601H45.62L57.556 40.7561C57.716 41.1721 57.556 41.6841 57.044 41.8441C56.628 42.0041 56.116 41.8441 55.956 41.3321L44.436 12.7241H18.964L8.276 41.3321C8.212 41.7481 7.86 41.9081 7.54 41.9081V41.9081Z" fill="#BFBFBF"/>
<path d="M49.14 48.0839H15.124L23.892 22.4199H39.892L49.14 48.0839Z" fill="#F5F5F5"/>
<path d="M50.324 48.9159H13.972L23.316 21.5559H40.5L50.324 48.9159ZM16.308 47.2519H47.988L39.316 23.2199H24.468L16.308 47.2519Z" fill="#BFBFBF"/>
<path d="M12.212 53.5879L7.636 41.2359V41.0759H22.132L23.284 45.4279C23.444 46.1639 24.212 46.7719 24.948 46.7719H37.716C38.452 46.7719 39.124 46.2599 39.316 45.6199L40.724 41.2039L56.564 41.1079C56.564 41.1079 56.66 41.2039 56.564 41.2679L52.052 53.6199H12.212V53.5879Z" fill="white"/>
<path d="M55.476 41.9079L51.476 52.7559H12.788L8.78801 41.9079H21.556L22.548 45.6519C22.868 46.8039 23.892 47.5719 24.98 47.5719H37.748C38.836 47.5719 39.828 46.8359 40.18 45.8119L41.428 41.9079H55.476V41.9079ZM56.564 40.2439H40.884C40.564 40.2439 40.212 40.4999 40.052 40.9159L38.644 45.2679C38.548 45.6839 38.228 45.9399 37.812 45.9399H25.044C24.628 45.9399 24.308 45.6839 24.212 45.2679L23.06 40.9159C22.964 40.4999 22.644 40.2439 22.228 40.2439H7.70001C7.12401 40.2439 6.70801 40.9159 6.86801 41.5879L11.636 54.4199H52.66L57.428 41.5879C57.652 40.9159 57.236 40.2439 56.564 40.2439V40.2439Z" fill="#BFBFBF"/>
<path d="M17.556 12.2761L19.028 11.4761L24.884 22.3561L23.412 23.1561L17.556 12.2761Z" fill="#BFBFBF"/>
<path d="M39.924 20.756L44.18 11.604L45.684 12.308L41.428 21.46L39.924 20.756Z" fill="#BFBFBF"/>
<path d="M57.236 20.2439H42.132L39.284 23.5719L38.292 20.2439H34.708C34.196 20.2439 33.876 19.9239 33.876 19.4119V7.7319C33.876 7.2199 34.196 6.8999 34.708 6.8999H57.236C57.748 6.8999 58.068 7.2199 58.068 7.7319V19.4119C58.068 19.9239 57.748 20.2439 57.236 20.2439Z" fill="white"/>
<path d="M39.156 23.9239C38.836 23.9239 38.484 23.6679 38.324 23.3479L37.812 21.7479C37.652 21.3319 37.908 20.8199 38.388 20.7559C38.804 20.5959 39.316 20.8519 39.38 21.3319L39.892 22.9319C40.052 23.3479 39.796 23.8599 39.316 23.9239H39.156ZM41.14 22.2279C40.98 22.2279 40.724 22.1319 40.628 22.0679C40.308 21.7479 40.212 21.2359 40.532 20.9159L41.78 19.4119H42.292C42.804 19.4119 43.124 19.7319 43.124 20.2439C43.124 20.5639 42.964 20.9159 42.612 20.9799L41.78 21.9719C41.556 22.1639 41.396 22.2279 41.14 22.2279ZM57.236 21.0759H55.572C55.06 21.0759 54.74 20.7559 54.74 20.2439C54.74 19.7319 55.06 19.4119 55.572 19.4119H57.236V18.1639C57.236 17.6519 57.556 17.3319 58.068 17.3319C58.58 17.3319 58.9 17.6519 58.9 18.1639V19.4119C58.9 19.6679 58.804 19.9239 58.74 20.1479C58.58 20.4679 58.324 20.6599 58.004 20.6599C57.908 20.9159 57.556 21.0759 57.236 21.0759V21.0759ZM52.244 21.0759H50.58C50.068 21.0759 49.748 20.7559 49.748 20.2439C49.748 19.7319 50.068 19.4119 50.58 19.4119H52.244C52.756 19.4119 53.076 19.7319 53.076 20.2439C53.076 20.7559 52.724 21.0759 52.244 21.0759ZM47.22 21.0759H45.556C45.044 21.0759 44.724 20.7559 44.724 20.2439C44.724 19.7319 45.044 19.4119 45.556 19.4119H47.22C47.732 19.4119 48.052 19.7319 48.052 20.2439C48.052 20.7559 47.732 21.0759 47.22 21.0759ZM36.212 21.0759H34.452C34.036 20.9799 33.716 20.5639 33.78 20.0839C33.876 19.6679 34.292 19.3479 34.772 19.4119H36.276C36.788 19.4119 37.108 19.7319 37.108 20.2439C37.14 20.7559 36.724 21.0759 36.212 21.0759ZM33.876 18.0679C33.364 18.0679 33.044 17.7479 33.044 17.2359V15.5719C33.044 15.0599 33.364 14.7399 33.876 14.7399C34.388 14.7399 34.708 15.0599 34.708 15.5719V17.2359C34.708 17.6519 34.388 18.0679 33.876 18.0679ZM58.068 15.6679C57.556 15.6679 57.236 15.3479 57.236 14.8359V13.1719C57.236 12.6599 57.556 12.3399 58.068 12.3399C58.58 12.3399 58.9 12.6599 58.9 13.1719V14.8359C58.9 15.2519 58.58 15.6679 58.068 15.6679ZM33.876 13.0759C33.364 13.0759 33.044 12.7559 33.044 12.2439V10.5799C33.044 10.0679 33.364 9.74791 33.876 9.74791C34.388 9.74791 34.708 10.0679 34.708 10.5799V12.2439C34.708 12.6599 34.388 13.0759 33.876 13.0759ZM58.068 10.6439C57.556 10.6439 57.236 10.3239 57.236 9.81191V8.14791C57.236 7.63591 57.556 7.31591 58.068 7.31591C58.58 7.31591 58.9 7.63591 58.9 8.14791V9.81191C58.9 10.2279 58.58 10.6439 58.068 10.6439ZM34.068 8.05191C33.908 8.05191 33.748 7.95591 33.556 7.89191C33.14 7.63591 33.044 7.15591 33.396 6.73991C33.716 6.32391 34.228 6.00391 34.74 6.00391H35.572C36.084 6.00391 36.404 6.32391 36.404 6.83591C36.404 7.34791 36.084 7.66791 35.572 7.66791H34.74C34.548 7.98791 34.292 8.05191 34.068 8.05191ZM55.668 7.73191H54.004C53.492 7.73191 53.172 7.41191 53.172 6.89991C53.172 6.38791 53.492 6.06791 54.004 6.06791H55.668C56.18 6.06791 56.5 6.38791 56.5 6.89991C56.5 7.41191 56.084 7.73191 55.668 7.73191ZM50.644 7.73191H48.98C48.468 7.73191 48.148 7.41191 48.148 6.89991C48.148 6.38791 48.468 6.06791 48.98 6.06791H50.644C51.156 6.06791 51.476 6.38791 51.476 6.89991C51.476 7.41191 51.06 7.73191 50.644 7.73191ZM45.652 7.73191H43.988C43.476 7.73191 43.156 7.41191 43.156 6.89991C43.156 6.38791 43.476 6.06791 43.988 6.06791H45.652C46.164 6.06791 46.484 6.38791 46.484 6.89991C46.484 7.41191 46.068 7.73191 45.652 7.73191ZM40.628 7.73191H38.964C38.452 7.73191 38.132 7.41191 38.132 6.89991C38.132 6.38791 38.452 6.06791 38.964 6.06791H40.628C41.14 6.06791 41.46 6.38791 41.46 6.89991C41.492 7.41191 41.044 7.73191 40.628 7.73191Z" fill="#BFBFBF"/>
<path d="M51.636 13.5561C51.636 14.4841 52.372 15.2201 53.3 15.2201C54.228 15.2201 54.964 14.4841 54.964 13.5561C54.964 12.6281 54.228 11.8921 53.3 11.8921C52.372 11.8921 51.636 12.6601 51.636 13.5561Z" fill="white"/>
<path d="M53.332 16.084C51.924 16.084 50.836 14.996 50.836 13.588C50.836 12.18 51.924 11.092 53.332 11.092C54.74 11.092 55.828 12.18 55.828 13.588C55.828 14.996 54.644 16.084 53.332 16.084ZM53.332 12.724C52.82 12.724 52.5 13.044 52.5 13.556C52.5 14.068 52.82 14.388 53.332 14.388C53.844 14.388 54.164 14.068 54.164 13.556C54.164 13.044 53.748 12.724 53.332 12.724Z" fill="#BFBFBF"/>
<path d="M44.308 13.5561C44.308 14.4841 45.044 15.2201 45.972 15.2201C46.9 15.2201 47.636 14.4841 47.636 13.5561C47.636 12.6281 46.9 11.8921 45.972 11.8921C45.044 11.8921 44.308 12.6601 44.308 13.5561Z" fill="white"/>
<path d="M45.972 16.084C44.564 16.084 43.476 14.996 43.476 13.588C43.476 12.18 44.564 11.092 45.972 11.092C47.38 11.092 48.468 12.18 48.468 13.588C48.468 14.996 47.412 16.084 45.972 16.084ZM45.972 12.724C45.46 12.724 45.14 13.044 45.14 13.556C45.14 14.068 45.46 14.388 45.972 14.388C46.484 14.388 46.804 14.068 46.804 13.556C46.804 13.044 46.484 12.724 45.972 12.724Z" fill="#BFBFBF"/>
<path d="M37.46 13.5561C37.46 14.4841 38.196 15.2201 39.124 15.2201C40.052 15.2201 40.788 14.4841 40.788 13.5561C40.788 12.6281 40.052 11.8921 39.124 11.8921C38.228 11.8921 37.46 12.6601 37.46 13.5561Z" fill="white"/>
<path d="M39.156 16.084C37.748 16.084 36.66 14.996 36.66 13.588C36.66 12.18 37.748 11.092 39.156 11.092C40.564 11.092 41.652 12.18 41.652 13.588C41.652 14.996 40.468 16.084 39.156 16.084ZM39.156 12.724C38.644 12.724 38.324 13.044 38.324 13.556C38.324 14.068 38.644 14.388 39.156 14.388C39.668 14.388 39.988 14.068 39.988 13.556C39.988 13.044 39.572 12.724 39.156 12.724Z" fill="#BFBFBF"/>
</svg>
