<svg width="18" height="18" viewBox="0 0 18 18" fill="none" xmlns="http://www.w3.org/2000/svg">
<path fill-rule="evenodd" clip-rule="evenodd" d="M2.07089 8H4.85693C5.04704 6.00285 5.68802 4.08165 6.72295 2.37869C4.27885 3.21904 2.44643 5.37454 2.07089 8ZM9 2.57179C7.82459 4.16119 7.08845 6.03394 6.8676 8H11.1324C10.9116 6.03394 10.1754 4.16119 9 2.57179ZM11.1324 10C10.9116 11.9661 10.1754 13.8388 9 15.4282C7.82459 13.8388 7.08845 11.9661 6.8676 10H11.1324ZM4.85693 10H2.07089C2.44643 12.6255 4.27884 14.781 6.72294 15.6213C5.68802 13.9184 5.04704 11.9971 4.85693 10ZM11.2771 15.6213C12.312 13.9184 12.953 11.9971 13.1431 10H15.9291C15.5536 12.6255 13.7212 14.781 11.2771 15.6213ZM15.9291 8H13.1431C12.953 6.00285 12.312 4.08165 11.2771 2.37869C13.7212 3.21903 15.5536 5.37453 15.9291 8ZM0 9C0 4.02944 4.02944 0 9 0C13.9706 0 18 4.02944 18 9C18 13.9706 13.9706 18 9 18C4.02944 18 0 13.9706 0 9Z" fill="#162166"/>
</svg>
