<svg width="18" height="18" viewBox="0 0 18 18" fill="none" xmlns="http://www.w3.org/2000/svg">
<path fill-rule="evenodd" clip-rule="evenodd" d="M8.18182 0.818182C8.18182 0.366312 8.54813 0 9 0C11.438 0 13.6489 0.969598 15.269 2.54267V1.91276C15.269 1.46089 15.6353 1.09458 16.0872 1.09458C16.5391 1.09458 16.9054 1.46089 16.9054 1.91276V4.90909C16.9054 5.36096 16.5391 5.72727 16.0872 5.72727H13.0909C12.639 5.72727 12.2727 5.36096 12.2727 4.90909C12.2727 4.45722 12.639 4.09091 13.0909 4.09091H14.4887C13.1397 2.58357 11.1802 1.63636 9 1.63636C8.54813 1.63636 8.18182 1.27005 8.18182 0.818182ZM1.09458 1.91282C1.09458 1.46095 1.46089 1.09464 1.91276 1.09464H4.90909C5.36096 1.09464 5.72727 1.46095 5.72727 1.91282V4.90913C5.72727 5.361 5.36096 5.72731 4.90909 5.72731C4.45722 5.72731 4.09091 5.361 4.09091 4.90913V3.5113C2.58356 4.86032 1.63636 6.81987 1.63636 9.00004C1.63636 9.45191 1.27005 9.81822 0.818182 9.81822C0.366312 9.81822 0 9.45191 0 9.00004C0 6.56207 0.969598 4.35109 2.54268 2.731H1.91276C1.46089 2.731 1.09458 2.36469 1.09458 1.91282ZM17.1818 8.18182C17.6337 8.18182 18 8.54813 18 9C18 11.438 17.0304 13.649 15.4573 15.2691H16.0873C16.5391 15.2691 16.9054 15.6354 16.9054 16.0873C16.9054 16.5391 16.5391 16.9054 16.0873 16.9054H13.0909C12.639 16.9054 12.2727 16.5391 12.2727 16.0873V13.0909C12.2727 12.639 12.639 12.2727 13.0909 12.2727C13.5428 12.2727 13.9091 12.639 13.9091 13.0909V14.4888C15.4164 13.1397 16.3636 11.1802 16.3636 9C16.3636 8.54813 16.7299 8.18182 17.1818 8.18182ZM1.09458 13.0909C1.09458 12.639 1.46089 12.2727 1.91276 12.2727H4.90909C5.36096 12.2727 5.72727 12.639 5.72727 13.0909C5.72727 13.5428 5.36096 13.9091 4.90909 13.9091H3.51124C4.86025 15.4164 6.81983 16.3636 9 16.3636C9.45187 16.3636 9.81818 16.7299 9.81818 17.1818C9.81818 17.6337 9.45187 18 9 18C6.56204 18 4.35104 17.0304 2.73094 15.4573V16.0873C2.73094 16.5391 2.36463 16.9054 1.91276 16.9054C1.46089 16.9054 1.09458 16.5391 1.09458 16.0873V13.0909Z" fill="#162166"/>
</svg>
