<svg width="22" height="16" viewBox="0 0 22 16" fill="none" xmlns="http://www.w3.org/2000/svg">
<path fill-rule="evenodd" clip-rule="evenodd" d="M2 0.5C1.17157 0.5 0.5 1.17157 0.5 2C0.5 2.82843 1.17157 3.5 2 3.5H2.01C2.83843 3.5 3.51 2.82843 3.51 2C3.51 1.17157 2.83843 0.5 2.01 0.5H2ZM7 0.5C6.17157 0.5 5.5 1.17157 5.5 2C5.5 2.82843 6.17157 3.5 7 3.5H20C20.8284 3.5 21.5 2.82843 21.5 2C21.5 1.17157 20.8284 0.5 20 0.5H7ZM2 6.5C1.17157 6.5 0.5 7.17157 0.5 8C0.5 8.82843 1.17157 9.5 2 9.5H2.01C2.83843 9.5 3.51 8.82843 3.51 8C3.51 7.17157 2.83843 6.5 2.01 6.5H2ZM7 6.5C6.17157 6.5 5.5 7.17157 5.5 8C5.5 8.82843 6.17157 9.5 7 9.5H20C20.8284 9.5 21.5 8.82843 21.5 8C21.5 7.17157 20.8284 6.5 20 6.5H7ZM2 12.5C1.17157 12.5 0.5 13.1716 0.5 14C0.5 14.8284 1.17157 15.5 2 15.5H2.01C2.83843 15.5 3.51 14.8284 3.51 14C3.51 13.1716 2.83843 12.5 2.01 12.5H2ZM7 12.5C6.17157 12.5 5.5 13.1716 5.5 14C5.5 14.8284 6.17157 15.5 7 15.5H20C20.8284 15.5 21.5 14.8284 21.5 14C21.5 13.1716 20.8284 12.5 20 12.5H7Z" fill="#162166"/>
</svg>
