<svg width="20" height="16" viewBox="0 0 20 16" fill="none" xmlns="http://www.w3.org/2000/svg">
<path fill-rule="evenodd" clip-rule="evenodd" d="M2.80003 2C2.57891 2 2.37232 2.08566 2.22432 2.22956C2.07727 2.37252 2.00003 2.56032 2.00003 2.75V4.5C2.00003 5.05228 1.55232 5.5 1.00003 5.5C0.447747 5.5 3.20167e-05 5.05228 3.20167e-05 4.5V2.75C3.20167e-05 2.01142 0.302078 1.30898 0.830161 0.795568C1.35729 0.283084 2.06637 0 2.80003 0H17.2C17.9337 0 18.6428 0.283084 19.1699 0.795568C19.698 1.30898 20 2.01142 20 2.75V13.25C20 13.9886 19.698 14.691 19.1699 15.2044C18.6428 15.7169 17.9337 16 17.2 16H11.8C11.2477 16 10.8 15.5523 10.8 15C10.8 14.4477 11.2477 14 11.8 14H17.2C17.4212 14 17.6277 13.9143 17.7757 13.7704C17.9228 13.6275 18 13.4397 18 13.25V2.75C18 2.56032 17.9228 2.37252 17.7757 2.22956C17.6277 2.08566 17.4212 2 17.2 2H2.80003ZM0.0950732 7.61825C0.276648 7.23207 0.683275 7.00367 1.10754 7.04955C3.15392 7.27082 5.06653 8.16288 6.52931 9.58503C7.99261 11.0077 8.91864 12.8766 9.14855 14.8863C9.1966 15.3063 8.97539 15.7111 8.59601 15.8975C8.21663 16.0839 7.76103 16.0117 7.45795 15.717L4.87545 13.2062C5.16278 13.6973 5.3709 14.233 5.48873 14.7947C5.57902 15.2251 5.3775 15.664 4.9922 15.8761C4.6069 16.0881 4.12829 16.0236 3.81295 15.717L0.302954 12.3045C-0.0146507 11.9957 -0.0912656 11.5148 0.114671 11.1226C0.320609 10.7304 0.760017 10.5204 1.19452 10.6066C1.76217 10.7191 2.30576 10.9181 2.80609 11.1944L0.302954 8.76075C-0.00301245 8.46328 -0.0865018 8.00443 0.0950732 7.61825Z" fill="#162166"/>
<path fill-rule="evenodd" clip-rule="evenodd" d="M3.20605e-05 15C3.20605e-05 14.4477 0.447747 14 1.00003 14H1.01003C1.56232 14 2.01003 14.4477 2.01003 15C2.01003 15.5523 1.56232 16 1.01003 16H1.00003C0.447747 16 3.20605e-05 15.5523 3.20605e-05 15Z" fill="#162166"/>
</svg>
