<svg width="20" height="21" viewBox="0 0 20 21" fill="none" xmlns="http://www.w3.org/2000/svg">
<path d="M10.001 20.002C4.48011 19.996 0.00606298 15.5219 0 10.001V9.801C0.109942 4.30498 4.63505 -0.0720329 10.1317 0.000898307C15.6283 0.0738295 20.0357 4.56936 19.9998 10.0664C19.9639 15.5634 15.4981 20.0009 10.001 20.002ZM9.985 18.0018H10.001C14.4182 17.9974 17.996 14.4142 17.9938 9.99702C17.9916 5.57986 14.4102 2.00022 9.993 2.00022C5.57584 2.00022 1.99441 5.57986 1.9922 9.99702C1.98999 14.4142 5.56784 17.9974 9.985 18.0018ZM11.0011 16.0016H9.0009V14.0014H11.0011V16.0016ZM11.0011 13.0013H9.0009C8.96929 11.6989 9.6471 10.4819 10.7711 9.823C11.4311 9.31695 12.0012 8.88091 12.0012 8.00082C12.0012 6.89614 11.1057 6.00062 10.001 6.00062C8.89632 6.00062 8.0008 6.89614 8.0008 8.00082H6.0006V7.91081C6.01668 6.4816 6.79401 5.16954 8.03977 4.46886C9.28554 3.76818 10.8105 3.78534 12.0402 4.51387C13.2699 5.24239 14.0175 6.57161 14.0014 8.00082C13.9298 9.07994 13.351 10.0613 12.4412 10.6461C11.6189 11.1623 11.0858 12.034 11.0011 13.0013Z" fill="#162166"/>
</svg>
