<svg width="30" height="23" viewBox="0 0 30 23" fill="none" xmlns="http://www.w3.org/2000/svg">
<path d="M3.04507 22.838H0C0 17.7928 4.08997 13.7028 9.1352 13.7028C14.1804 13.7028 18.2704 17.7928 18.2704 22.838H15.2253C15.2253 19.4745 12.4987 16.7479 9.1352 16.7479C5.77171 16.7479 3.04507 19.4745 3.04507 22.838ZM21.3063 17.3721L17.1864 13.2613L19.3362 11.1023L21.3033 13.0694L27.8502 6.53471L30 8.69062L21.3033 17.3691L21.3063 17.3721ZM9.1352 12.1803C5.77171 12.1803 3.04507 9.45362 3.04507 6.09013C3.04507 2.72665 5.77171 0 9.1352 0C12.4987 0 15.2253 2.72665 15.2253 6.09013C15.2211 9.45188 12.4969 12.1761 9.1352 12.1803ZM9.1352 3.04507C7.47167 3.04675 6.11737 4.38314 6.09353 6.0465C6.06969 7.70985 7.38515 9.0845 9.04794 9.13386C10.7107 9.18321 12.1054 7.889 12.1803 6.22716V6.83618V6.09013C12.1803 4.40839 10.8169 3.04507 9.1352 3.04507Z" fill="#1373FF"/>
</svg>
