<svg width="18" height="18" viewBox="0 0 18 18" fill="none" xmlns="http://www.w3.org/2000/svg">
<path fill-rule="evenodd" clip-rule="evenodd" d="M3.18142 0C3.73371 0 4.18142 0.447715 4.18142 1V7.22222C4.18142 7.77451 3.73371 8.22222 3.18142 8.22222C2.62914 8.22222 2.18142 7.77451 2.18142 7.22222V1C2.18142 0.447715 2.62914 0 3.18142 0ZM9 0C9.55229 0 10 0.447715 10 1V4.44444H11.182C11.7343 4.44444 12.182 4.89216 12.182 5.44444C12.182 5.99673 11.7343 6.44444 11.182 6.44444H6.81836C6.26607 6.44444 5.81836 5.99673 5.81836 5.44444C5.81836 4.89216 6.26607 4.44444 6.81836 4.44444H8V1C8 0.447715 8.44772 0 9 0ZM14.8186 0C15.3709 0 15.8186 0.447715 15.8186 1V9C15.8186 9.55229 15.3709 10 14.8186 10C14.2663 10 13.8186 9.55229 13.8186 9V1C13.8186 0.447715 14.2663 0 14.8186 0ZM9 8C9.55229 8 10 8.44772 10 9V17C10 17.5523 9.55229 18 9 18C8.44772 18 8 17.5523 8 17V9C8 8.44772 8.44772 8 9 8ZM0 10.7778C0 10.2255 0.447715 9.77778 1 9.77778H5.36364C5.91592 9.77778 6.36364 10.2255 6.36364 10.7778C6.36364 11.3301 5.91592 11.7778 5.36364 11.7778H4.18164V17C4.18164 17.5523 3.73393 18 3.18164 18C2.62936 18 2.18164 17.5523 2.18164 17V11.7778H1C0.447715 11.7778 0 11.3301 0 10.7778ZM11.6367 12.5556C11.6367 12.0033 12.0844 11.5556 12.6367 11.5556H17.0004C17.5526 11.5556 18.0004 12.0033 18.0004 12.5556C18.0004 13.1078 17.5526 13.5556 17.0004 13.5556H15.8184V17C15.8184 17.5523 15.3706 18 14.8184 18C14.2661 18 13.8184 17.5523 13.8184 17V13.5556H12.6367C12.0844 13.5556 11.6367 13.1078 11.6367 12.5556Z" fill="#162166"/>
</svg>
