<svg width="14" height="18" viewBox="0 0 14 18" fill="none" xmlns="http://www.w3.org/2000/svg">
<path fill-rule="evenodd" clip-rule="evenodd" d="M2.71429 2C2.25369 2 2 2.33249 2 2.6V15.4C2 15.6675 2.25369 16 2.71429 16H11.2857C11.7463 16 12 15.6675 12 15.4V2.6C12 2.33249 11.7463 2 11.2857 2H2.71429ZM0 2.6C0 1.1002 1.28133 0 2.71429 0H11.2857C12.7187 0 14 1.1002 14 2.6V15.4C14 16.8998 12.7187 18 11.2857 18H2.71429C1.28133 18 0 16.8998 0 15.4V2.6Z" fill="#162166"/>
<path fill-rule="evenodd" clip-rule="evenodd" d="M6 14C6 13.4477 6.44772 13 7 13H7.01C7.56228 13 8.01 13.4477 8.01 14C8.01 14.5523 7.56228 15 7.01 15H7C6.44772 15 6 14.5523 6 14Z" fill="#162166"/>
</svg>
