<svg width="20" height="21" viewBox="0 0 20 21" fill="none" xmlns="http://www.w3.org/2000/svg">
<path d="M10.0003 0.708313C9.22252 0.708313 8.59199 1.33885 8.59199 2.11665V9.11663L6.66283 7.18747C6.11285 6.63748 5.22114 6.63748 4.67115 7.18747C4.12116 7.73746 4.12116 8.62917 4.67115 9.17916L9.00448 13.5125C9.55447 14.0625 10.4462 14.0625 10.9962 13.5125L15.3295 9.17916C15.8795 8.62917 15.8795 7.73746 15.3295 7.18747C14.7795 6.63748 13.8878 6.63748 13.3378 7.18747L11.4087 9.11663V2.11665C11.4087 1.33885 10.7781 0.708313 10.0003 0.708313Z" fill="#162166"/>
<path d="M2.20033 12.1916C1.42252 12.1916 0.791992 12.8222 0.791992 13.6V17.0666C0.791992 17.8999 1.12299 18.699 1.71216 19.2881C2.30134 19.8773 3.10044 20.2083 3.93366 20.2083H16.067C16.9002 20.2083 17.6993 19.8773 18.2885 19.2881C18.8777 18.699 19.2087 17.8999 19.2087 17.0666V13.6C19.2087 12.8222 18.5781 12.1916 17.8003 12.1916C17.0225 12.1916 16.392 12.8222 16.392 13.6V17.0666C16.392 17.1528 16.3578 17.2355 16.2968 17.2965C16.2359 17.3574 16.1532 17.3916 16.067 17.3916H3.93366C3.84746 17.3916 3.7648 17.3574 3.70385 17.2965C3.6429 17.2355 3.60866 17.1528 3.60866 17.0666V13.6C3.60866 12.8222 2.97813 12.1916 2.20033 12.1916Z" fill="#162166"/>
</svg>
