<svg width="20" height="20" viewBox="0 0 20 20" fill="none" xmlns="http://www.w3.org/2000/svg">
<path d="M0 0H5.71429C7.29224 0 8.57143 1.27919 8.57143 2.85715V5.71429C8.57143 7.29225 7.29224 8.57144 5.71428 8.57144H2.85714C1.27918 8.57144 0 7.29225 0 5.71429V0Z" fill="#162166"/>
<path d="M0 14.2857C0 12.7078 1.27919 11.4286 2.85715 11.4286H5.71429C7.29224 11.4286 8.57143 12.7078 8.57143 14.2857V17.1429C8.57143 18.7208 7.29224 20 5.71428 20H0V14.2857Z" fill="#162166"/>
<path d="M11.4286 2.85715C11.4286 1.27919 12.7078 0 14.2857 0H20V5.71429C20 7.29225 18.7208 8.57144 17.1429 8.57144H14.2857C12.7078 8.57144 11.4286 7.29225 11.4286 5.71429V2.85715Z" fill="#162166"/>
<path d="M11.4286 14.2857C11.4286 12.7078 12.7078 11.4286 14.2857 11.4286H17.1429C18.7208 11.4286 20 12.7078 20 14.2857V20H14.2857C12.7078 20 11.4286 18.7208 11.4286 17.1429V14.2857Z" fill="#162166"/>
</svg>
