<svg width="16" height="16" viewBox="0 0 16 16" fill="none" xmlns="http://www.w3.org/2000/svg">
<path d="M8.00316 7.62562e-06C3.84863 -0.00568437 0.382608 3.17579 0.0293147 7.31925C-0.323979 11.4627 2.5533 15.1861 6.64871 15.8852C10.7441 16.5842 14.6916 14.0259 15.7303 9.99938H13.6514C12.6352 12.8763 9.62354 14.5315 6.65301 13.8456C3.68248 13.1597 1.6995 10.3512 2.04506 7.31945C2.39062 4.28765 4.95462 1.99844 8.00316 1.99988C9.59109 2.00221 11.1114 2.64363 12.2219 3.77978L9.00714 6.99957H16V7.62562e-06L13.6514 2.34987C12.1566 0.844584 10.1235 -0.00127422 8.00316 7.62562e-06Z" fill="#162166"/>
</svg>
