<svg width="22" height="22" viewBox="0 0 22 22" fill="none" xmlns="http://www.w3.org/2000/svg">
<path d="M12.972 21.8334H9.02869C8.51965 21.8334 8.07921 21.4791 7.97028 20.9819L7.52936 18.9409C6.94117 18.6831 6.38344 18.3609 5.86644 17.9799L3.87636 18.6137C3.39103 18.7685 2.86343 18.5642 2.60886 18.1229L0.632859 14.7094C0.381079 14.2679 0.467823 13.711 0.841943 13.3671L2.38569 11.9588C2.31549 11.3208 2.31549 10.6771 2.38569 10.0391L0.841943 8.63402C0.467272 8.28992 0.380494 7.73238 0.632859 7.29069L2.60453 3.87494C2.85909 3.43369 3.38669 3.22942 3.87203 3.38419L5.86211 4.01794C6.12651 3.82202 6.40175 3.64118 6.68653 3.47627C6.95989 3.32211 7.24123 3.18252 7.52936 3.0581L7.97136 1.01927C8.07977 0.521987 8.51973 0.167223 9.02869 0.166687H12.972C13.481 0.167223 13.921 0.521987 14.0294 1.01927L14.4757 3.05919C14.7799 3.193 15.0761 3.34419 15.3629 3.51202C15.6305 3.66673 15.8891 3.83636 16.1375 4.0201L18.1287 3.38635C18.6137 3.23216 19.1406 3.43636 19.3951 3.8771L21.3668 7.29285C21.6186 7.7343 21.5318 8.29116 21.1577 8.6351L19.6139 10.0434C19.6841 10.6814 19.6841 11.3251 19.6139 11.9631L21.1577 13.3714C21.5318 13.7154 21.6186 14.2722 21.3668 14.7137L19.3951 18.1294C19.1406 18.5702 18.6137 18.7744 18.1287 18.6202L16.1375 17.9864C15.8856 18.172 15.6237 18.3438 15.3532 18.501C15.0692 18.6656 14.7762 18.8142 14.4757 18.9463L14.0294 20.9819C13.9205 21.4787 13.4807 21.8329 12.972 21.8334ZM6.25536 15.5814L7.14369 16.2314C7.34395 16.3789 7.55267 16.5146 7.76878 16.6377C7.97212 16.7555 8.18149 16.8625 8.39603 16.9584L9.40678 17.4014L9.90186 19.6667H12.101L12.5961 17.4004L13.6069 16.9573C14.0481 16.7627 14.4669 16.5208 14.8559 16.2358L15.7454 15.5858L17.9564 16.2899L19.056 14.3854L17.3411 12.8222L17.4624 11.7259C17.5157 11.2463 17.5157 10.7624 17.4624 10.2829L17.3411 9.18652L19.0571 7.62002L17.9564 5.71444L15.7454 6.4186L14.8559 5.7686C14.4668 5.48229 14.048 5.23859 13.6069 5.04169L12.5961 4.5986L12.101 2.33335H9.90186L9.40461 4.59969L8.39603 5.04169C8.18132 5.13598 7.97192 5.24195 7.76878 5.3591C7.55399 5.48188 7.34638 5.61679 7.14694 5.76319L6.25753 6.41319L4.04753 5.70902L2.94578 7.62002L4.66069 9.1811L4.53936 10.2785C4.48606 10.758 4.48606 11.242 4.53936 11.7215L4.66069 12.8179L2.94578 14.3811L4.04536 16.2856L6.25536 15.5814ZM10.996 15.3334C8.60279 15.3334 6.66269 13.3933 6.66269 11C6.66269 8.60679 8.60279 6.66669 10.996 6.66669C13.3893 6.66669 15.3294 8.60679 15.3294 11C15.3264 13.392 13.388 15.3304 10.996 15.3334ZM10.996 8.83335C9.81237 8.83455 8.84874 9.78544 8.83178 10.969C8.81482 12.1525 9.7508 13.1306 10.9339 13.1657C12.1171 13.2009 13.1094 12.28 13.1627 11.0975V11.5309V11C13.1627 9.8034 12.1926 8.83335 10.996 8.83335Z" fill="#162166"/>
</svg>
