<svg width="36" height="36" viewBox="0 0 36 36" fill="none" xmlns="http://www.w3.org/2000/svg">
<path d="M33 14.505C32.9052 14.2306 32.7329 13.9896 32.504 13.8113C32.275 13.6329 31.9992 13.5247 31.71 13.5L23.175 12.255L19.35 4.5C19.2271 4.2464 19.0354 4.03252 18.7966 3.88286C18.5578 3.73321 18.2818 3.65384 18 3.65384C17.7182 3.65384 17.4421 3.73321 17.2033 3.88286C16.9646 4.03252 16.7728 4.2464 16.65 4.5L12.825 12.24L4.28997 13.5C4.01235 13.5395 3.75135 13.6559 3.53659 13.8362C3.32183 14.0165 3.16191 14.2534 3.07497 14.52C2.99538 14.7805 2.98824 15.0578 3.05431 15.322C3.12037 15.5863 3.25715 15.8276 3.44997 16.02L9.64497 22.02L8.14497 30.54C8.09142 30.8212 8.11946 31.1119 8.22577 31.3777C8.33209 31.6435 8.51225 31.8733 8.74497 32.04C8.97179 32.2022 9.23933 32.2979 9.51754 32.3164C9.79575 32.335 10.0736 32.2756 10.32 32.145L18 28.14L25.65 32.16C25.8605 32.2788 26.0983 32.3408 26.34 32.34C26.6577 32.3411 26.9676 32.2413 27.225 32.055C27.4577 31.8883 27.6378 31.6585 27.7442 31.3927C27.8505 31.1269 27.8785 30.8362 27.825 30.555L26.325 22.035L32.52 16.035C32.7365 15.8515 32.8966 15.6104 32.9816 15.3395C33.0665 15.0687 33.0729 14.7793 33 14.505ZM23.775 20.505C23.5991 20.6752 23.4674 20.8858 23.3916 21.1185C23.3158 21.3512 23.2981 21.5989 23.34 21.84L24.42 28.125L18.78 25.125C18.5629 25.0094 18.3208 24.949 18.075 24.949C17.8291 24.949 17.587 25.0094 17.37 25.125L11.73 28.125L12.81 21.84C12.8519 21.5989 12.8341 21.3512 12.7583 21.1185C12.6825 20.8858 12.5509 20.6752 12.375 20.505L7.87497 16.005L14.19 15.09C14.433 15.0562 14.664 14.9633 14.8627 14.8195C15.0615 14.6756 15.2219 14.4853 15.33 14.265L18 8.55L20.82 14.28C20.928 14.5003 21.0885 14.6906 21.2872 14.8345C21.486 14.9783 21.717 15.0712 21.96 15.105L28.275 16.02L23.775 20.505Z" fill="#4E4E4E"/>
</svg>
