<svg width="30" height="23" viewBox="0 0 30 23" fill="none" xmlns="http://www.w3.org/2000/svg">
<path d="M3 22.5H0C0 17.5294 4.02944 13.5 9 13.5C13.9706 13.5 18 17.5294 18 22.5H15C15 19.1863 12.3137 16.5 9 16.5C5.68629 16.5 3 19.1863 3 22.5ZM25.5 18H22.5V13.5H18V10.5H22.5V6H25.5V10.5H30V13.5H25.5V18ZM9 12C5.68629 12 3 9.31371 3 6C3 2.68629 5.68629 0 9 0C12.3137 0 15 2.68629 15 6C14.9959 9.312 12.312 11.9959 9 12ZM9 3C7.36109 3.00166 6.02683 4.31827 6.00335 5.95701C5.97986 7.59575 7.27585 8.95005 8.91403 8.99868C10.5522 9.0473 11.9262 7.77225 12 6.135V6.735V6C12 4.34315 10.6569 3 9 3Z" fill="#F1AB38"/>
</svg>
