<svg width="26" height="26" viewBox="0 0 26 26" fill="none" xmlns="http://www.w3.org/2000/svg">
<path d="M20.1846 9.05159C20.059 8.92957 19.9097 8.83278 19.7454 8.76673C19.5811 8.70068 19.4049 8.66669 19.227 8.66669C19.0491 8.66669 18.873 8.70068 18.7087 8.76673C18.5443 8.83278 18.3951 8.92957 18.2694 9.05159L12.9991 14.1582L7.72887 9.05159C7.4749 8.8055 7.13044 8.66724 6.77126 8.66724C6.41209 8.66724 6.06762 8.8055 5.81365 9.05159C5.55967 9.29768 5.41699 9.63144 5.41699 9.97947C5.41699 10.3275 5.55967 10.6613 5.81365 10.9073L12.0483 16.9485C12.174 17.0705 12.3232 17.1673 12.4876 17.2333C12.6519 17.2994 12.828 17.3334 13.0059 17.3334C13.1838 17.3334 13.36 17.2994 13.5243 17.2333C13.6886 17.1673 13.8379 17.0705 13.9635 16.9485L20.1982 10.9074C20.7144 10.4072 20.7144 9.56488 20.1846 9.05159Z" fill="#162166"/>
</svg>
