<?xml version="1.0" standalone="no"?><!DOCTYPE svg PUBLIC "-//W3C//DTD SVG 1.1//EN" "http://www.w3.org/Graphics/SVG/1.1/DTD/svg11.dtd"><svg t="1634201810834" class="icon" viewBox="0 0 1024 1024" version="1.1" xmlns="http://www.w3.org/2000/svg" p-id="11753" xmlns:xlink="http://www.w3.org/1999/xlink" width="200" height="200"><defs><style type="text/css"></style></defs><path d="M807.519 129.1H217.695c-48.181 0-87.381 39.2-87.381 87.381v589.824c0 48.181 39.2 87.381 87.381 87.381h589.824c48.181 0 87.381-39.2 87.381-87.381V216.481c0-48.181-39.2-87.381-87.381-87.381z m29.126 677.205c0 16.02-13.107 29.127-29.127 29.127H217.694c-16.02 0-29.127-13.107-29.127-29.127V216.481c0-16.02 13.107-29.127 29.127-29.127h589.824c16.02 0 29.127 13.107 29.127 29.127v589.824z" p-id="11754"></path></svg>